<svg xmlns="http://www.w3.org/2000/svg" xmlns:xlink="http://www.w3.org/1999/xlink" width="2500" zoomAndPan="magnify" viewBox="0 0 1874.88 599.999999" height="800" preserveAspectRatio="xMidYMid meet" version="1.0"><defs><g><g id="id1"/><g id="id2"/></g><clipPath id="id3"><path d="M 67 38 L 678.707031 38 L 678.707031 586.992188 L 67 586.992188 Z M 67 38 " clip-rule="nonzero"/></clipPath><clipPath id="id4"><path d="M 39 38 L 650 38 L 650 586.992188 L 39 586.992188 Z M 39 38 " clip-rule="nonzero"/></clipPath><clipPath id="id5"><path d="M 53 38 L 665 38 L 665 586.992188 L 53 586.992188 Z M 53 38 " clip-rule="nonzero"/></clipPath></defs><g fill="rgb(98.429871%, 96.078491%, 95.289612%)" fill-opacity="1"><g transform="translate(646.37586, 476.84829)"><g><path d="M 111.921875 -117.984375 C 108.328125 -113.046875 103.832031 -109 98.4375 -105.84375 C 93.039062 -102.695312 87.195312 -100.113281 80.90625 -98.09375 C 74.613281 -96.070312 68.207031 -94.613281 61.6875 -93.71875 C 55.175781 -92.820312 49.445312 -92.144531 44.5 -91.6875 C 43.144531 -82.25 42.351562 -73.035156 42.125 -64.046875 C 41.90625 -55.054688 42.359375 -46.960938 43.484375 -39.765625 C 44.609375 -32.578125 46.40625 -26.507812 48.875 -21.5625 C 51.351562 -16.625 54.835938 -13.484375 59.328125 -12.140625 C 65.171875 -10.335938 71.460938 -11.347656 78.203125 -15.171875 C 84.953125 -18.992188 91.472656 -24.273438 97.765625 -31.015625 C 104.054688 -37.753906 110.125 -45.617188 115.96875 -54.609375 C 121.8125 -63.597656 126.976562 -72.25 131.46875 -80.5625 C 135.96875 -88.882812 139.789062 -96.523438 142.9375 -103.484375 C 146.082031 -110.453125 148.101562 -115.507812 149 -118.65625 C 150.351562 -122.707031 152.488281 -125.40625 155.40625 -126.75 C 158.332031 -128.101562 161.140625 -128.550781 163.828125 -128.09375 C 166.523438 -127.644531 168.773438 -126.1875 170.578125 -123.71875 C 172.378906 -121.25 172.828125 -117.988281 171.921875 -113.9375 C 171.023438 -111.238281 169.453125 -105.957031 167.203125 -98.09375 C 164.953125 -90.226562 161.691406 -81.351562 157.421875 -71.46875 C 153.160156 -61.582031 147.992188 -51.359375 141.921875 -40.796875 C 135.859375 -30.234375 128.554688 -20.566406 120.015625 -11.796875 C 111.472656 -3.035156 101.691406 4.265625 90.671875 10.109375 C 79.660156 15.953125 67.414062 18.875 53.9375 18.875 C 37.757812 18.875 25.175781 13.253906 16.1875 2.015625 C 7.195312 -9.210938 1.128906 -23.367188 -2.015625 -40.453125 C -5.160156 -57.535156 -5.722656 -75.851562 -3.703125 -95.40625 C -1.679688 -114.957031 2.359375 -133.269531 8.421875 -150.34375 C 14.492188 -167.425781 22.132812 -181.585938 31.34375 -192.828125 C 40.5625 -204.066406 50.789062 -209.6875 62.03125 -209.6875 C 72.8125 -209.6875 82.359375 -205.976562 90.671875 -198.5625 C 98.992188 -191.144531 105.398438 -182.488281 109.890625 -172.59375 C 114.390625 -162.707031 116.972656 -152.59375 117.640625 -142.25 C 118.316406 -131.914062 116.410156 -123.828125 111.921875 -117.984375 Z M 70.125 -178 C 66.976562 -176.644531 63.601562 -170.910156 60 -160.796875 C 56.40625 -150.679688 53.035156 -138.4375 49.890625 -124.0625 C 54.835938 -124.0625 59.78125 -124.617188 64.71875 -125.734375 C 69.664062 -126.859375 73.265625 -129.222656 75.515625 -132.828125 C 77.304688 -135.515625 78.425781 -139.441406 78.875 -144.609375 C 79.332031 -149.785156 79.222656 -155.066406 78.546875 -160.453125 C 77.867188 -165.847656 76.742188 -170.34375 75.171875 -173.9375 C 73.597656 -177.539062 71.914062 -178.894531 70.125 -178 Z M 70.125 -178 "/></g></g></g><g fill="rgb(98.429871%, 96.078491%, 95.289612%)" fill-opacity="1"><g transform="translate(795.37703, 476.84829)"><g><path d="M 11.46875 -281.828125 C 11.46875 -292.609375 14.382812 -300.132812 20.21875 -304.40625 C 26.0625 -308.675781 32.46875 -310.585938 39.4375 -310.140625 C 46.40625 -309.691406 52.472656 -307.21875 57.640625 -302.71875 C 62.816406 -298.226562 64.726562 -292.382812 63.375 -285.1875 C 62.476562 -279.800781 61.015625 -269.238281 58.984375 -253.5 C 56.960938 -237.769531 55.050781 -219.675781 53.25 -199.21875 C 51.457031 -178.769531 49.882812 -157.535156 48.53125 -135.515625 C 47.1875 -113.492188 46.398438 -93.15625 46.171875 -74.5 C 45.953125 -55.84375 46.628906 -40.554688 48.203125 -28.640625 C 49.773438 -16.734375 52.8125 -10.78125 57.3125 -10.78125 C 60.007812 -10.78125 63.71875 -15.722656 68.4375 -25.609375 C 73.15625 -35.503906 77.875 -46.742188 82.59375 -59.328125 C 87.3125 -71.910156 91.691406 -84.15625 95.734375 -96.0625 C 99.785156 -107.976562 102.484375 -115.738281 103.828125 -119.34375 C 104.722656 -123.382812 106.742188 -126.078125 109.890625 -127.421875 C 113.035156 -128.773438 116.066406 -129.113281 118.984375 -128.4375 C 121.910156 -127.757812 124.382812 -126.1875 126.40625 -123.71875 C 128.4375 -121.25 128.773438 -117.988281 127.421875 -113.9375 C 124.722656 -104.945312 121.125 -92.363281 116.625 -76.1875 C 112.132812 -60.007812 106.519531 -44.050781 99.78125 -28.3125 C 93.039062 -12.582031 84.953125 1.125 75.515625 12.8125 C 66.078125 24.5 54.835938 30.34375 41.796875 30.34375 C 29.660156 30.34375 20.554688 23.9375 14.484375 11.125 C 8.421875 -1.6875 4.265625 -17.976562 2.015625 -37.75 C -0.222656 -57.53125 -1.003906 -79.554688 -0.328125 -103.828125 C 0.335938 -128.097656 1.566406 -151.804688 3.359375 -174.953125 C 5.160156 -198.109375 6.960938 -219.234375 8.765625 -238.328125 C 10.566406 -257.429688 11.46875 -271.929688 11.46875 -281.828125 Z M 11.46875 -281.828125 "/></g></g></g><g fill="rgb(98.429871%, 96.078491%, 95.289612%)" fill-opacity="1"><g transform="translate(899.205909, 476.84829)"><g><path d="M 11.46875 -281.828125 C 11.46875 -292.609375 14.382812 -300.132812 20.21875 -304.40625 C 26.0625 -308.675781 32.46875 -310.585938 39.4375 -310.140625 C 46.40625 -309.691406 52.472656 -307.21875 57.640625 -302.71875 C 62.816406 -298.226562 64.726562 -292.382812 63.375 -285.1875 C 62.476562 -279.800781 61.015625 -269.238281 58.984375 -253.5 C 56.960938 -237.769531 55.050781 -219.675781 53.25 -199.21875 C 51.457031 -178.769531 49.882812 -157.535156 48.53125 -135.515625 C 47.1875 -113.492188 46.398438 -93.15625 46.171875 -74.5 C 45.953125 -55.84375 46.628906 -40.554688 48.203125 -28.640625 C 49.773438 -16.734375 52.8125 -10.78125 57.3125 -10.78125 C 60.007812 -10.78125 63.71875 -15.722656 68.4375 -25.609375 C 73.15625 -35.503906 77.875 -46.742188 82.59375 -59.328125 C 87.3125 -71.910156 91.691406 -84.15625 95.734375 -96.0625 C 99.785156 -107.976562 102.484375 -115.738281 103.828125 -119.34375 C 104.722656 -123.382812 106.742188 -126.078125 109.890625 -127.421875 C 113.035156 -128.773438 116.066406 -129.113281 118.984375 -128.4375 C 121.910156 -127.757812 124.382812 -126.1875 126.40625 -123.71875 C 128.4375 -121.25 128.773438 -117.988281 127.421875 -113.9375 C 124.722656 -104.945312 121.125 -92.363281 116.625 -76.1875 C 112.132812 -60.007812 106.519531 -44.050781 99.78125 -28.3125 C 93.039062 -12.582031 84.953125 1.125 75.515625 12.8125 C 66.078125 24.5 54.835938 30.34375 41.796875 30.34375 C 29.660156 30.34375 20.554688 23.9375 14.484375 11.125 C 8.421875 -1.6875 4.265625 -17.976562 2.015625 -37.75 C -0.222656 -57.53125 -1.003906 -79.554688 -0.328125 -103.828125 C 0.335938 -128.097656 1.566406 -151.804688 3.359375 -174.953125 C 5.160156 -198.109375 6.960938 -219.234375 8.765625 -238.328125 C 10.566406 -257.429688 11.46875 -271.929688 11.46875 -281.828125 Z M 11.46875 -281.828125 "/></g></g></g><g fill="rgb(98.429871%, 96.078491%, 95.289612%)" fill-opacity="1"><g transform="translate(1003.034777, 476.84829)"><g><path d="M 61.359375 -17.53125 C 44.722656 -17.53125 31.457031 -21.800781 21.5625 -30.34375 C 11.675781 -38.882812 4.820312 -49.445312 1 -62.03125 C -2.8125 -74.613281 -3.929688 -88.320312 -2.359375 -103.15625 C -0.785156 -117.988281 3.03125 -131.582031 9.09375 -143.9375 C 15.164062 -156.300781 23.144531 -166.53125 33.03125 -174.625 C 42.925781 -182.71875 54.613281 -186.3125 68.09375 -185.40625 C 83.820312 -184.507812 96.628906 -179.789062 106.515625 -171.25 C 116.410156 -162.707031 123.601562 -152.144531 128.09375 -139.5625 C 132.59375 -126.976562 134.503906 -113.601562 133.828125 -99.4375 C 133.160156 -85.28125 129.90625 -72.132812 124.0625 -60 C 118.21875 -47.863281 110.015625 -37.75 99.453125 -29.65625 C 88.890625 -21.570312 76.191406 -17.53125 61.359375 -17.53125 Z M 70.125 -47.875 C 75.0625 -47.414062 79.101562 -49.769531 82.25 -54.9375 C 85.394531 -60.113281 87.640625 -66.859375 88.984375 -75.171875 C 90.335938 -83.484375 90.898438 -92.582031 90.671875 -102.46875 C 90.453125 -112.363281 89.332031 -121.582031 87.3125 -130.125 C 85.289062 -138.664062 82.476562 -145.859375 78.875 -151.703125 C 75.28125 -157.546875 71.015625 -160.46875 66.078125 -160.46875 C 61.578125 -160.46875 57.753906 -157.769531 54.609375 -152.375 C 51.460938 -146.976562 49.101562 -140.234375 47.53125 -132.140625 C 45.957031 -124.054688 45.171875 -115.179688 45.171875 -105.515625 C 45.171875 -95.847656 46.066406 -86.859375 47.859375 -78.546875 C 49.660156 -70.234375 52.359375 -63.15625 55.953125 -57.3125 C 59.554688 -51.46875 64.28125 -48.320312 70.125 -47.875 Z M 70.125 -47.875 "/></g></g></g><g fill="rgb(98.429871%, 96.078491%, 95.289612%)" fill-opacity="1"><g transform="translate(1153.384308, 476.84829)"><g><path d="M 2.015625 -159.796875 C 3.816406 -169.679688 8.085938 -177.429688 14.828125 -183.046875 C 21.578125 -188.671875 28.429688 -192.492188 35.390625 -194.515625 C 42.359375 -196.535156 48.425781 -196.757812 53.59375 -195.1875 C 58.769531 -193.613281 60.679688 -190.128906 59.328125 -184.734375 C 57.984375 -178.441406 56.410156 -169.898438 54.609375 -159.109375 C 52.816406 -148.328125 51.242188 -137.316406 49.890625 -126.078125 C 48.546875 -114.835938 47.421875 -104.160156 46.515625 -94.046875 C 45.617188 -83.941406 45.171875 -76.640625 45.171875 -72.140625 C 46.972656 -78.429688 49.21875 -84.945312 51.90625 -91.6875 C 54.601562 -98.4375 57.410156 -105.066406 60.328125 -111.578125 C 63.253906 -118.097656 66.289062 -124.054688 69.4375 -129.453125 C 72.582031 -134.847656 75.503906 -139.117188 78.203125 -142.265625 C 81.347656 -146.753906 86.179688 -150.234375 92.703125 -152.703125 C 99.222656 -155.179688 105.289062 -156.421875 110.90625 -156.421875 C 116.53125 -156.421875 121.140625 -154.847656 124.734375 -151.703125 C 128.328125 -148.554688 129 -144.0625 126.75 -138.21875 C 125.851562 -135.519531 124.953125 -130.347656 124.046875 -122.703125 C 123.148438 -115.066406 122.253906 -106.753906 121.359375 -97.765625 C 124.054688 -104.054688 127.648438 -111.019531 132.140625 -118.65625 C 136.640625 -126.300781 141.132812 -133.609375 145.625 -140.578125 C 150.125 -147.546875 154.28125 -153.945312 158.09375 -159.78125 C 161.914062 -165.625 164.953125 -169.894531 167.203125 -172.59375 C 170.347656 -177.09375 175.066406 -180.800781 181.359375 -183.71875 C 187.648438 -186.644531 193.71875 -188.109375 199.5625 -188.109375 C 205.40625 -188.109375 210.347656 -186.644531 214.390625 -183.71875 C 218.441406 -180.800781 220.242188 -175.972656 219.796875 -169.234375 C 219.347656 -166.085938 218.5625 -160.691406 217.4375 -153.046875 C 216.3125 -145.398438 214.847656 -136.632812 213.046875 -126.75 C 211.253906 -116.863281 209.570312 -106.523438 208 -95.734375 C 206.425781 -84.953125 205.078125 -75.175781 203.953125 -66.40625 C 202.828125 -57.644531 202.148438 -50.34375 201.921875 -44.5 C 201.703125 -38.65625 202.488281 -35.734375 204.28125 -35.734375 C 206.976562 -35.734375 210.570312 -38.878906 215.0625 -45.171875 C 219.5625 -51.460938 223.945312 -58.988281 228.21875 -67.75 C 232.488281 -76.519531 236.535156 -85.625 240.359375 -95.0625 C 244.179688 -104.5 246.988281 -112.140625 248.78125 -117.984375 C 250.132812 -122.035156 252.269531 -124.847656 255.1875 -126.421875 C 258.113281 -127.992188 260.925781 -128.441406 263.625 -127.765625 C 266.320312 -127.085938 268.566406 -125.515625 270.359375 -123.046875 C 272.160156 -120.578125 272.609375 -117.316406 271.703125 -113.265625 C 270.359375 -106.972656 267.328125 -98.09375 262.609375 -86.625 C 257.890625 -75.164062 252.15625 -63.59375 245.40625 -51.90625 C 238.664062 -40.226562 231.25 -29.664062 223.15625 -20.21875 C 215.070312 -10.78125 206.757812 -5.390625 198.21875 -4.046875 C 188.78125 -2.242188 181.25 -3.363281 175.625 -7.40625 C 170.007812 -11.457031 165.96875 -17.300781 163.5 -24.9375 C 161.03125 -32.582031 159.566406 -41.238281 159.109375 -50.90625 C 158.660156 -60.570312 158.882812 -70.125 159.78125 -79.5625 C 160.6875 -89 161.8125 -97.425781 163.15625 -104.84375 C 164.507812 -112.257812 165.859375 -117.765625 167.203125 -121.359375 C 164.953125 -120.460938 161.578125 -116.191406 157.078125 -108.546875 C 152.585938 -100.910156 147.984375 -92.484375 143.265625 -83.265625 C 138.546875 -74.046875 134.164062 -65.054688 130.125 -56.296875 C 126.082031 -47.535156 123.382812 -41.582031 122.03125 -38.4375 L 122.03125 -39.109375 C 121.132812 -36.410156 119 -33.375 115.625 -30 C 112.257812 -26.632812 108.328125 -23.9375 103.828125 -21.90625 C 99.335938 -19.882812 95.179688 -18.875 91.359375 -18.875 C 87.535156 -18.875 84.953125 -21.125 83.609375 -25.625 C 82.253906 -30.113281 81.351562 -36.289062 80.90625 -44.15625 C 80.457031 -52.019531 80.234375 -59.660156 80.234375 -67.078125 C 80.234375 -74.492188 80.34375 -81.234375 80.5625 -87.296875 C 80.789062 -93.367188 80.679688 -97.082031 80.234375 -98.4375 C 77.984375 -97.539062 75.507812 -93.492188 72.8125 -86.296875 C 70.113281 -79.109375 67.300781 -71.019531 64.375 -62.03125 C 61.457031 -53.039062 58.875 -43.820312 56.625 -34.375 C 54.382812 -24.9375 52.816406 -17.523438 51.921875 -12.140625 C 51.015625 -6.296875 47.976562 -1.914062 42.8125 1 C 37.644531 3.925781 32.023438 5.390625 25.953125 5.390625 C 19.890625 5.390625 14.5 3.816406 9.78125 0.671875 C 5.0625 -2.472656 2.925781 -7.414062 3.375 -14.15625 C 3.820312 -21.800781 3.707031 -32.023438 3.03125 -44.828125 C 2.351562 -57.640625 1.675781 -71.015625 1 -84.953125 C 0.332031 -98.890625 0 -112.597656 0 -126.078125 C 0 -139.566406 0.671875 -150.804688 2.015625 -159.796875 Z M 2.015625 -159.796875 "/></g></g></g><g fill="rgb(98.429871%, 96.078491%, 95.289612%)" fill-opacity="1"><g transform="translate(1402.169062, 476.84829)"><g><path d="M 79.5625 -184.0625 C 85.851562 -182.707031 91.359375 -179.78125 96.078125 -175.28125 C 100.796875 -170.789062 104.726562 -165.851562 107.875 -160.46875 C 111.46875 -164.507812 115.960938 -166.753906 121.359375 -167.203125 C 126.753906 -167.648438 131.921875 -166.863281 136.859375 -164.84375 C 141.804688 -162.820312 145.851562 -159.675781 149 -155.40625 C 152.144531 -151.132812 153.269531 -146.078125 152.375 -140.234375 C 150.570312 -132.140625 148.882812 -122.023438 147.3125 -109.890625 C 145.738281 -97.753906 144.726562 -86.066406 144.28125 -74.828125 C 143.832031 -63.597656 144.171875 -53.9375 145.296875 -45.84375 C 146.421875 -37.75 148.78125 -33.703125 152.375 -33.703125 C 155.070312 -33.703125 158.328125 -37.1875 162.140625 -44.15625 C 165.960938 -51.125 169.785156 -59.328125 173.609375 -68.765625 C 177.429688 -78.203125 180.914062 -87.640625 184.0625 -97.078125 C 187.207031 -106.523438 189.226562 -113.71875 190.125 -118.65625 C 191.476562 -123.15625 193.726562 -126.191406 196.875 -127.765625 C 200.019531 -129.335938 203.050781 -129.785156 205.96875 -129.109375 C 208.894531 -128.429688 211.367188 -126.742188 213.390625 -124.046875 C 215.410156 -121.359375 215.75 -117.988281 214.40625 -113.9375 C 213.5 -111.238281 212.035156 -106.179688 210.015625 -98.765625 C 207.992188 -91.347656 205.410156 -83.144531 202.265625 -74.15625 C 199.117188 -65.164062 195.410156 -55.835938 191.140625 -46.171875 C 186.867188 -36.515625 181.921875 -27.976562 176.296875 -20.5625 C 170.679688 -13.144531 164.390625 -7.410156 157.421875 -3.359375 C 150.460938 0.679688 142.9375 1.578125 134.84375 -0.671875 C 121.8125 -4.265625 112.375 -12.128906 106.53125 -24.265625 C 102.925781 -13.484375 97.976562 -3.710938 91.6875 5.046875 C 85.394531 13.816406 77.304688 20.222656 67.421875 24.265625 C 57.984375 27.410156 49.664062 28.085938 42.46875 26.296875 C 29.4375 22.703125 19.097656 14.609375 11.453125 2.015625 C 3.816406 -10.566406 -1.347656 -25.171875 -4.046875 -41.796875 C -6.742188 -58.429688 -6.96875 -75.738281 -4.71875 -93.71875 C -2.46875 -111.695312 2.132812 -127.875 9.09375 -142.25 C 16.0625 -156.632812 25.390625 -167.984375 37.078125 -176.296875 C 48.765625 -184.617188 62.925781 -187.207031 79.5625 -184.0625 Z M 97.09375 -115.96875 C 96.1875 -123.601562 94.5 -131.015625 92.03125 -138.203125 C 89.5625 -145.398438 85.851562 -149.445312 80.90625 -150.34375 C 73.71875 -151.695312 67.3125 -149.113281 61.6875 -142.59375 C 56.070312 -136.082031 51.460938 -127.429688 47.859375 -116.640625 C 44.265625 -105.847656 41.679688 -94.046875 40.109375 -81.234375 C 38.535156 -68.429688 38.085938 -56.296875 38.765625 -44.828125 C 39.441406 -33.367188 41.238281 -23.59375 44.15625 -15.5 C 47.082031 -7.414062 51.46875 -2.921875 57.3125 -2.015625 C 63.15625 -1.117188 68.660156 -4.265625 73.828125 -11.453125 C 78.992188 -18.648438 83.488281 -27.863281 87.3125 -39.09375 C 91.132812 -50.332031 94.054688 -62.804688 96.078125 -76.515625 C 98.097656 -90.234375 98.4375 -103.382812 97.09375 -115.96875 Z M 97.09375 -115.96875 "/></g></g></g><g fill="rgb(98.429871%, 96.078491%, 95.289612%)" fill-opacity="1"><g transform="translate(1592.297267, 476.84829)"><g><path d="M 7.421875 -221.140625 C 7.421875 -224.285156 7.53125 -227.316406 7.75 -230.234375 C 7.976562 -233.160156 8.09375 -235.75 8.09375 -238 C 8.09375 -248.789062 11.015625 -256.316406 16.859375 -260.578125 C 22.703125 -264.847656 28.992188 -266.757812 35.734375 -266.3125 C 42.472656 -265.863281 48.425781 -263.390625 53.59375 -258.890625 C 58.769531 -254.398438 60.679688 -248.5625 59.328125 -241.375 L 55.953125 -223.84375 L 72.140625 -223.84375 C 80.679688 -223.84375 86.859375 -222.378906 90.671875 -219.453125 C 94.492188 -216.535156 96.40625 -213.390625 96.40625 -210.015625 C 96.40625 -206.648438 94.382812 -203.617188 90.34375 -200.921875 C 86.300781 -198.222656 80.679688 -196.875 73.484375 -196.875 L 53.265625 -196.875 C 51.460938 -180.6875 49.882812 -162.816406 48.53125 -143.265625 C 47.1875 -123.710938 46.289062 -105.285156 45.84375 -87.984375 C 45.394531 -70.679688 45.617188 -56.296875 46.515625 -44.828125 C 47.421875 -33.367188 49.445312 -27.640625 52.59375 -27.640625 C 55.289062 -27.640625 59 -31.6875 63.71875 -39.78125 C 68.4375 -47.875 73.265625 -57.203125 78.203125 -67.765625 C 83.148438 -78.328125 87.644531 -88.660156 91.6875 -98.765625 C 95.738281 -108.878906 98.4375 -115.738281 99.78125 -119.34375 C 100.675781 -123.382812 102.695312 -126.078125 105.84375 -127.421875 C 109 -128.773438 112.035156 -129.113281 114.953125 -128.4375 C 117.878906 -127.757812 120.351562 -126.1875 122.375 -123.71875 C 124.394531 -121.25 124.726562 -117.988281 123.375 -113.9375 C 120.6875 -104.945312 117.09375 -93.257812 112.59375 -78.875 C 108.101562 -64.5 102.484375 -50.566406 95.734375 -37.078125 C 88.992188 -23.597656 80.90625 -11.910156 71.46875 -2.015625 C 62.03125 7.867188 50.789062 12.8125 37.75 12.8125 C 29.21875 12.8125 22.253906 9.4375 16.859375 2.6875 C 11.460938 -4.050781 7.414062 -12.925781 4.71875 -23.9375 C 2.019531 -34.945312 0.335938 -47.644531 -0.328125 -62.03125 C -1.003906 -76.414062 -1.117188 -91.25 -0.671875 -106.53125 C -0.222656 -121.8125 0.671875 -137.203125 2.015625 -152.703125 C 3.367188 -168.210938 4.492188 -182.484375 5.390625 -195.515625 L -10.78125 -195.515625 C -17.976562 -195.515625 -23.484375 -196.863281 -27.296875 -199.5625 C -31.117188 -202.257812 -33.140625 -205.179688 -33.359375 -208.328125 C -33.585938 -211.472656 -31.90625 -214.394531 -28.3125 -217.09375 C -24.71875 -219.789062 -18.875 -221.140625 -10.78125 -221.140625 Z M 7.421875 -221.140625 "/></g></g></g><g fill="rgb(98.429871%, 96.078491%, 95.289612%)" fill-opacity="1"><g transform="translate(1691.406642, 476.84829)"><g><path d="M 20.90625 -109.890625 C 20 -106.296875 18.082031 -103.710938 15.15625 -102.140625 C 12.238281 -100.566406 9.207031 -100.117188 6.0625 -100.796875 C 2.914062 -101.472656 0.445312 -103.046875 -1.34375 -105.515625 C -3.144531 -107.984375 -3.144531 -111.242188 -1.34375 -115.296875 L 2.703125 -126.75 C -1.347656 -130.800781 -3.597656 -135.519531 -4.046875 -140.90625 C -4.492188 -146.300781 -3.59375 -151.359375 -1.34375 -156.078125 C 0.894531 -160.796875 4.148438 -164.84375 8.421875 -168.21875 C 12.691406 -171.59375 17.523438 -173.28125 22.921875 -173.28125 C 32.359375 -173.28125 37.523438 -169.796875 38.421875 -162.828125 C 39.328125 -155.859375 37.984375 -148.101562 34.390625 -139.5625 C 37.085938 -138.21875 41.46875 -137.992188 47.53125 -138.890625 C 53.601562 -139.785156 59.332031 -140.34375 64.71875 -140.5625 C 70.113281 -140.789062 74.609375 -139.78125 78.203125 -137.53125 C 81.804688 -135.289062 82.707031 -130.125 80.90625 -122.03125 C 79.101562 -113.9375 77.191406 -104.269531 75.171875 -93.03125 C 73.148438 -81.800781 71.6875 -71.128906 70.78125 -61.015625 C 69.882812 -50.898438 69.882812 -42.242188 70.78125 -35.046875 C 71.6875 -27.859375 74.160156 -24.265625 78.203125 -24.265625 C 80.898438 -24.265625 84.382812 -28.195312 88.65625 -36.0625 C 92.925781 -43.9375 97.304688 -53.039062 101.796875 -63.375 C 106.296875 -73.71875 110.34375 -84.171875 113.9375 -94.734375 C 117.539062 -105.296875 119.789062 -113.269531 120.6875 -118.65625 C 121.582031 -123.15625 123.488281 -126.300781 126.40625 -128.09375 C 129.332031 -129.894531 132.367188 -130.679688 135.515625 -130.453125 C 138.660156 -130.234375 141.242188 -128.882812 143.265625 -126.40625 C 145.296875 -123.9375 146.082031 -120.457031 145.625 -115.96875 C 145.175781 -113.71875 144.050781 -108.882812 142.25 -101.46875 C 140.457031 -94.050781 137.988281 -85.734375 134.84375 -76.515625 C 131.695312 -67.304688 127.875 -57.644531 123.375 -47.53125 C 118.882812 -37.414062 113.492188 -28.085938 107.203125 -19.546875 C 100.910156 -11.003906 93.941406 -4.148438 86.296875 1.015625 C 78.660156 6.179688 70.117188 8.539062 60.671875 8.09375 C 49.890625 7.644531 42.023438 2.816406 37.078125 -6.390625 C 32.140625 -15.609375 28.992188 -26.625 27.640625 -39.4375 C 26.296875 -52.25 26.632812 -65.847656 28.65625 -80.234375 C 30.675781 -94.617188 33.484375 -107.203125 37.078125 -117.984375 C 34.828125 -117.535156 32.578125 -117.3125 30.328125 -117.3125 C 28.085938 -117.3125 25.84375 -117.3125 23.59375 -117.3125 C 22.25 -115.0625 21.351562 -112.585938 20.90625 -109.890625 Z M 20.90625 -109.890625 "/></g></g></g><g fill="rgb(100%, 74.899292%, 0%)" fill-opacity="1"><g transform="translate(646.363908, 459.340318)"><g><path d="M 111.921875 -117.984375 C 108.328125 -113.046875 103.832031 -109 98.4375 -105.84375 C 93.039062 -102.695312 87.195312 -100.113281 80.90625 -98.09375 C 74.613281 -96.070312 68.207031 -94.613281 61.6875 -93.71875 C 55.175781 -92.820312 49.445312 -92.144531 44.5 -91.6875 C 43.144531 -82.25 42.351562 -73.035156 42.125 -64.046875 C 41.90625 -55.054688 42.359375 -46.960938 43.484375 -39.765625 C 44.609375 -32.578125 46.40625 -26.507812 48.875 -21.5625 C 51.351562 -16.625 54.835938 -13.484375 59.328125 -12.140625 C 65.171875 -10.335938 71.460938 -11.347656 78.203125 -15.171875 C 84.953125 -18.992188 91.472656 -24.273438 97.765625 -31.015625 C 104.054688 -37.753906 110.125 -45.617188 115.96875 -54.609375 C 121.8125 -63.597656 126.976562 -72.25 131.46875 -80.5625 C 135.96875 -88.882812 139.789062 -96.523438 142.9375 -103.484375 C 146.082031 -110.453125 148.101562 -115.507812 149 -118.65625 C 150.351562 -122.707031 152.488281 -125.40625 155.40625 -126.75 C 158.332031 -128.101562 161.140625 -128.550781 163.828125 -128.09375 C 166.523438 -127.644531 168.773438 -126.1875 170.578125 -123.71875 C 172.378906 -121.25 172.828125 -117.988281 171.921875 -113.9375 C 171.023438 -111.238281 169.453125 -105.957031 167.203125 -98.09375 C 164.953125 -90.226562 161.691406 -81.351562 157.421875 -71.46875 C 153.160156 -61.582031 147.992188 -51.359375 141.921875 -40.796875 C 135.859375 -30.234375 128.554688 -20.566406 120.015625 -11.796875 C 111.472656 -3.035156 101.691406 4.265625 90.671875 10.109375 C 79.660156 15.953125 67.414062 18.875 53.9375 18.875 C 37.757812 18.875 25.175781 13.253906 16.1875 2.015625 C 7.195312 -9.210938 1.128906 -23.367188 -2.015625 -40.453125 C -5.160156 -57.535156 -5.722656 -75.851562 -3.703125 -95.40625 C -1.679688 -114.957031 2.359375 -133.269531 8.421875 -150.34375 C 14.492188 -167.425781 22.132812 -181.585938 31.34375 -192.828125 C 40.5625 -204.066406 50.789062 -209.6875 62.03125 -209.6875 C 72.8125 -209.6875 82.359375 -205.976562 90.671875 -198.5625 C 98.992188 -191.144531 105.398438 -182.488281 109.890625 -172.59375 C 114.390625 -162.707031 116.972656 -152.59375 117.640625 -142.25 C 118.316406 -131.914062 116.410156 -123.828125 111.921875 -117.984375 Z M 70.125 -178 C 66.976562 -176.644531 63.601562 -170.910156 60 -160.796875 C 56.40625 -150.679688 53.035156 -138.4375 49.890625 -124.0625 C 54.835938 -124.0625 59.78125 -124.617188 64.71875 -125.734375 C 69.664062 -126.859375 73.265625 -129.222656 75.515625 -132.828125 C 77.304688 -135.515625 78.425781 -139.441406 78.875 -144.609375 C 79.332031 -149.785156 79.222656 -155.066406 78.546875 -160.453125 C 77.867188 -165.847656 76.742188 -170.34375 75.171875 -173.9375 C 73.597656 -177.539062 71.914062 -178.894531 70.125 -178 Z M 70.125 -178 "/></g></g></g><g fill="rgb(100%, 74.899292%, 0%)" fill-opacity="1"><g transform="translate(795.365999, 459.340318)"><g><path d="M 11.46875 -281.828125 C 11.46875 -292.609375 14.382812 -300.132812 20.21875 -304.40625 C 26.0625 -308.675781 32.46875 -310.585938 39.4375 -310.140625 C 46.40625 -309.691406 52.472656 -307.21875 57.640625 -302.71875 C 62.816406 -298.226562 64.726562 -292.382812 63.375 -285.1875 C 62.476562 -279.800781 61.015625 -269.238281 58.984375 -253.5 C 56.960938 -237.769531 55.050781 -219.675781 53.25 -199.21875 C 51.457031 -178.769531 49.882812 -157.535156 48.53125 -135.515625 C 47.1875 -113.492188 46.398438 -93.15625 46.171875 -74.5 C 45.953125 -55.84375 46.628906 -40.554688 48.203125 -28.640625 C 49.773438 -16.734375 52.8125 -10.78125 57.3125 -10.78125 C 60.007812 -10.78125 63.71875 -15.722656 68.4375 -25.609375 C 73.15625 -35.503906 77.875 -46.742188 82.59375 -59.328125 C 87.3125 -71.910156 91.691406 -84.15625 95.734375 -96.0625 C 99.785156 -107.976562 102.484375 -115.738281 103.828125 -119.34375 C 104.722656 -123.382812 106.742188 -126.078125 109.890625 -127.421875 C 113.035156 -128.773438 116.066406 -129.113281 118.984375 -128.4375 C 121.910156 -127.757812 124.382812 -126.1875 126.40625 -123.71875 C 128.4375 -121.25 128.773438 -117.988281 127.421875 -113.9375 C 124.722656 -104.945312 121.125 -92.363281 116.625 -76.1875 C 112.132812 -60.007812 106.519531 -44.050781 99.78125 -28.3125 C 93.039062 -12.582031 84.953125 1.125 75.515625 12.8125 C 66.078125 24.5 54.835938 30.34375 41.796875 30.34375 C 29.660156 30.34375 20.554688 23.9375 14.484375 11.125 C 8.421875 -1.6875 4.265625 -17.976562 2.015625 -37.75 C -0.222656 -57.53125 -1.003906 -79.554688 -0.328125 -103.828125 C 0.335938 -128.097656 1.566406 -151.804688 3.359375 -174.953125 C 5.160156 -198.109375 6.960938 -219.234375 8.765625 -238.328125 C 10.566406 -257.429688 11.46875 -271.929688 11.46875 -281.828125 Z M 11.46875 -281.828125 "/></g></g></g><g fill="rgb(100%, 74.899292%, 0%)" fill-opacity="1"><g transform="translate(899.195521, 459.340318)"><g><path d="M 11.46875 -281.828125 C 11.46875 -292.609375 14.382812 -300.132812 20.21875 -304.40625 C 26.0625 -308.675781 32.46875 -310.585938 39.4375 -310.140625 C 46.40625 -309.691406 52.472656 -307.21875 57.640625 -302.71875 C 62.816406 -298.226562 64.726562 -292.382812 63.375 -285.1875 C 62.476562 -279.800781 61.015625 -269.238281 58.984375 -253.5 C 56.960938 -237.769531 55.050781 -219.675781 53.25 -199.21875 C 51.457031 -178.769531 49.882812 -157.535156 48.53125 -135.515625 C 47.1875 -113.492188 46.398438 -93.15625 46.171875 -74.5 C 45.953125 -55.84375 46.628906 -40.554688 48.203125 -28.640625 C 49.773438 -16.734375 52.8125 -10.78125 57.3125 -10.78125 C 60.007812 -10.78125 63.71875 -15.722656 68.4375 -25.609375 C 73.15625 -35.503906 77.875 -46.742188 82.59375 -59.328125 C 87.3125 -71.910156 91.691406 -84.15625 95.734375 -96.0625 C 99.785156 -107.976562 102.484375 -115.738281 103.828125 -119.34375 C 104.722656 -123.382812 106.742188 -126.078125 109.890625 -127.421875 C 113.035156 -128.773438 116.066406 -129.113281 118.984375 -128.4375 C 121.910156 -127.757812 124.382812 -126.1875 126.40625 -123.71875 C 128.4375 -121.25 128.773438 -117.988281 127.421875 -113.9375 C 124.722656 -104.945312 121.125 -92.363281 116.625 -76.1875 C 112.132812 -60.007812 106.519531 -44.050781 99.78125 -28.3125 C 93.039062 -12.582031 84.953125 1.125 75.515625 12.8125 C 66.078125 24.5 54.835938 30.34375 41.796875 30.34375 C 29.660156 30.34375 20.554688 23.9375 14.484375 11.125 C 8.421875 -1.6875 4.265625 -17.976562 2.015625 -37.75 C -0.222656 -57.53125 -1.003906 -79.554688 -0.328125 -103.828125 C 0.335938 -128.097656 1.566406 -151.804688 3.359375 -174.953125 C 5.160156 -198.109375 6.960938 -219.234375 8.765625 -238.328125 C 10.566406 -257.429688 11.46875 -271.929688 11.46875 -281.828125 Z M 11.46875 -281.828125 "/></g></g></g><g fill="rgb(100%, 74.899292%, 0%)" fill-opacity="1"><g transform="translate(1003.025052, 459.340318)"><g><path d="M 61.359375 -17.53125 C 44.722656 -17.53125 31.457031 -21.800781 21.5625 -30.34375 C 11.675781 -38.882812 4.820312 -49.445312 1 -62.03125 C -2.8125 -74.613281 -3.929688 -88.320312 -2.359375 -103.15625 C -0.785156 -117.988281 3.03125 -131.582031 9.09375 -143.9375 C 15.164062 -156.300781 23.144531 -166.53125 33.03125 -174.625 C 42.925781 -182.71875 54.613281 -186.3125 68.09375 -185.40625 C 83.820312 -184.507812 96.628906 -179.789062 106.515625 -171.25 C 116.410156 -162.707031 123.601562 -152.144531 128.09375 -139.5625 C 132.59375 -126.976562 134.503906 -113.601562 133.828125 -99.4375 C 133.160156 -85.28125 129.90625 -72.132812 124.0625 -60 C 118.21875 -47.863281 110.015625 -37.75 99.453125 -29.65625 C 88.890625 -21.570312 76.191406 -17.53125 61.359375 -17.53125 Z M 70.125 -47.875 C 75.0625 -47.414062 79.101562 -49.769531 82.25 -54.9375 C 85.394531 -60.113281 87.640625 -66.859375 88.984375 -75.171875 C 90.335938 -83.484375 90.898438 -92.582031 90.671875 -102.46875 C 90.453125 -112.363281 89.332031 -121.582031 87.3125 -130.125 C 85.289062 -138.664062 82.476562 -145.859375 78.875 -151.703125 C 75.28125 -157.546875 71.015625 -160.46875 66.078125 -160.46875 C 61.578125 -160.46875 57.753906 -157.769531 54.609375 -152.375 C 51.460938 -146.976562 49.101562 -140.234375 47.53125 -132.140625 C 45.957031 -124.054688 45.171875 -115.179688 45.171875 -105.515625 C 45.171875 -95.847656 46.066406 -86.859375 47.859375 -78.546875 C 49.660156 -70.234375 52.359375 -63.15625 55.953125 -57.3125 C 59.554688 -51.46875 64.28125 -48.320312 70.125 -47.875 Z M 70.125 -47.875 "/></g></g></g><g fill="rgb(100%, 74.899292%, 0%)" fill-opacity="1"><g transform="translate(1153.375476, 459.340318)"><g><path d="M 2.015625 -159.796875 C 3.816406 -169.679688 8.085938 -177.429688 14.828125 -183.046875 C 21.578125 -188.671875 28.429688 -192.492188 35.390625 -194.515625 C 42.359375 -196.535156 48.425781 -196.757812 53.59375 -195.1875 C 58.769531 -193.613281 60.679688 -190.128906 59.328125 -184.734375 C 57.984375 -178.441406 56.410156 -169.898438 54.609375 -159.109375 C 52.816406 -148.328125 51.242188 -137.316406 49.890625 -126.078125 C 48.546875 -114.835938 47.421875 -104.160156 46.515625 -94.046875 C 45.617188 -83.941406 45.171875 -76.640625 45.171875 -72.140625 C 46.972656 -78.429688 49.21875 -84.945312 51.90625 -91.6875 C 54.601562 -98.4375 57.410156 -105.066406 60.328125 -111.578125 C 63.253906 -118.097656 66.289062 -124.054688 69.4375 -129.453125 C 72.582031 -134.847656 75.503906 -139.117188 78.203125 -142.265625 C 81.347656 -146.753906 86.179688 -150.234375 92.703125 -152.703125 C 99.222656 -155.179688 105.289062 -156.421875 110.90625 -156.421875 C 116.53125 -156.421875 121.140625 -154.847656 124.734375 -151.703125 C 128.328125 -148.554688 129 -144.0625 126.75 -138.21875 C 125.851562 -135.519531 124.953125 -130.347656 124.046875 -122.703125 C 123.148438 -115.066406 122.253906 -106.753906 121.359375 -97.765625 C 124.054688 -104.054688 127.648438 -111.019531 132.140625 -118.65625 C 136.640625 -126.300781 141.132812 -133.609375 145.625 -140.578125 C 150.125 -147.546875 154.28125 -153.945312 158.09375 -159.78125 C 161.914062 -165.625 164.953125 -169.894531 167.203125 -172.59375 C 170.347656 -177.09375 175.066406 -180.800781 181.359375 -183.71875 C 187.648438 -186.644531 193.71875 -188.109375 199.5625 -188.109375 C 205.40625 -188.109375 210.347656 -186.644531 214.390625 -183.71875 C 218.441406 -180.800781 220.242188 -175.972656 219.796875 -169.234375 C 219.347656 -166.085938 218.5625 -160.691406 217.4375 -153.046875 C 216.3125 -145.398438 214.847656 -136.632812 213.046875 -126.75 C 211.253906 -116.863281 209.570312 -106.523438 208 -95.734375 C 206.425781 -84.953125 205.078125 -75.175781 203.953125 -66.40625 C 202.828125 -57.644531 202.148438 -50.34375 201.921875 -44.5 C 201.703125 -38.65625 202.488281 -35.734375 204.28125 -35.734375 C 206.976562 -35.734375 210.570312 -38.878906 215.0625 -45.171875 C 219.5625 -51.460938 223.945312 -58.988281 228.21875 -67.75 C 232.488281 -76.519531 236.535156 -85.625 240.359375 -95.0625 C 244.179688 -104.5 246.988281 -112.140625 248.78125 -117.984375 C 250.132812 -122.035156 252.269531 -124.847656 255.1875 -126.421875 C 258.113281 -127.992188 260.925781 -128.441406 263.625 -127.765625 C 266.320312 -127.085938 268.566406 -125.515625 270.359375 -123.046875 C 272.160156 -120.578125 272.609375 -117.316406 271.703125 -113.265625 C 270.359375 -106.972656 267.328125 -98.09375 262.609375 -86.625 C 257.890625 -75.164062 252.15625 -63.59375 245.40625 -51.90625 C 238.664062 -40.226562 231.25 -29.664062 223.15625 -20.21875 C 215.070312 -10.78125 206.757812 -5.390625 198.21875 -4.046875 C 188.78125 -2.242188 181.25 -3.363281 175.625 -7.40625 C 170.007812 -11.457031 165.96875 -17.300781 163.5 -24.9375 C 161.03125 -32.582031 159.566406 -41.238281 159.109375 -50.90625 C 158.660156 -60.570312 158.882812 -70.125 159.78125 -79.5625 C 160.6875 -89 161.8125 -97.425781 163.15625 -104.84375 C 164.507812 -112.257812 165.859375 -117.765625 167.203125 -121.359375 C 164.953125 -120.460938 161.578125 -116.191406 157.078125 -108.546875 C 152.585938 -100.910156 147.984375 -92.484375 143.265625 -83.265625 C 138.546875 -74.046875 134.164062 -65.054688 130.125 -56.296875 C 126.082031 -47.535156 123.382812 -41.582031 122.03125 -38.4375 L 122.03125 -39.109375 C 121.132812 -36.410156 119 -33.375 115.625 -30 C 112.257812 -26.632812 108.328125 -23.9375 103.828125 -21.90625 C 99.335938 -19.882812 95.179688 -18.875 91.359375 -18.875 C 87.535156 -18.875 84.953125 -21.125 83.609375 -25.625 C 82.253906 -30.113281 81.351562 -36.289062 80.90625 -44.15625 C 80.457031 -52.019531 80.234375 -59.660156 80.234375 -67.078125 C 80.234375 -74.492188 80.34375 -81.234375 80.5625 -87.296875 C 80.789062 -93.367188 80.679688 -97.082031 80.234375 -98.4375 C 77.984375 -97.539062 75.507812 -93.492188 72.8125 -86.296875 C 70.113281 -79.109375 67.300781 -71.019531 64.375 -62.03125 C 61.457031 -53.039062 58.875 -43.820312 56.625 -34.375 C 54.382812 -24.9375 52.816406 -17.523438 51.921875 -12.140625 C 51.015625 -6.296875 47.976562 -1.914062 42.8125 1 C 37.644531 3.925781 32.023438 5.390625 25.953125 5.390625 C 19.890625 5.390625 14.5 3.816406 9.78125 0.671875 C 5.0625 -2.472656 2.925781 -7.414062 3.375 -14.15625 C 3.820312 -21.800781 3.707031 -32.023438 3.03125 -44.828125 C 2.351562 -57.640625 1.675781 -71.015625 1 -84.953125 C 0.332031 -98.890625 0 -112.597656 0 -126.078125 C 0 -139.566406 0.671875 -150.804688 2.015625 -159.796875 Z M 2.015625 -159.796875 "/></g></g></g><g fill="rgb(100%, 74.899292%, 0%)" fill-opacity="1"><g transform="translate(1402.161765, 459.340318)"><g><path d="M 79.5625 -184.0625 C 85.851562 -182.707031 91.359375 -179.78125 96.078125 -175.28125 C 100.796875 -170.789062 104.726562 -165.851562 107.875 -160.46875 C 111.46875 -164.507812 115.960938 -166.753906 121.359375 -167.203125 C 126.753906 -167.648438 131.921875 -166.863281 136.859375 -164.84375 C 141.804688 -162.820312 145.851562 -159.675781 149 -155.40625 C 152.144531 -151.132812 153.269531 -146.078125 152.375 -140.234375 C 150.570312 -132.140625 148.882812 -122.023438 147.3125 -109.890625 C 145.738281 -97.753906 144.726562 -86.066406 144.28125 -74.828125 C 143.832031 -63.597656 144.171875 -53.9375 145.296875 -45.84375 C 146.421875 -37.75 148.78125 -33.703125 152.375 -33.703125 C 155.070312 -33.703125 158.328125 -37.1875 162.140625 -44.15625 C 165.960938 -51.125 169.785156 -59.328125 173.609375 -68.765625 C 177.429688 -78.203125 180.914062 -87.640625 184.0625 -97.078125 C 187.207031 -106.523438 189.226562 -113.71875 190.125 -118.65625 C 191.476562 -123.15625 193.726562 -126.191406 196.875 -127.765625 C 200.019531 -129.335938 203.050781 -129.785156 205.96875 -129.109375 C 208.894531 -128.429688 211.367188 -126.742188 213.390625 -124.046875 C 215.410156 -121.359375 215.75 -117.988281 214.40625 -113.9375 C 213.5 -111.238281 212.035156 -106.179688 210.015625 -98.765625 C 207.992188 -91.347656 205.410156 -83.144531 202.265625 -74.15625 C 199.117188 -65.164062 195.410156 -55.835938 191.140625 -46.171875 C 186.867188 -36.515625 181.921875 -27.976562 176.296875 -20.5625 C 170.679688 -13.144531 164.390625 -7.410156 157.421875 -3.359375 C 150.460938 0.679688 142.9375 1.578125 134.84375 -0.671875 C 121.8125 -4.265625 112.375 -12.128906 106.53125 -24.265625 C 102.925781 -13.484375 97.976562 -3.710938 91.6875 5.046875 C 85.394531 13.816406 77.304688 20.222656 67.421875 24.265625 C 57.984375 27.410156 49.664062 28.085938 42.46875 26.296875 C 29.4375 22.703125 19.097656 14.609375 11.453125 2.015625 C 3.816406 -10.566406 -1.347656 -25.171875 -4.046875 -41.796875 C -6.742188 -58.429688 -6.96875 -75.738281 -4.71875 -93.71875 C -2.46875 -111.695312 2.132812 -127.875 9.09375 -142.25 C 16.0625 -156.632812 25.390625 -167.984375 37.078125 -176.296875 C 48.765625 -184.617188 62.925781 -187.207031 79.5625 -184.0625 Z M 97.09375 -115.96875 C 96.1875 -123.601562 94.5 -131.015625 92.03125 -138.203125 C 89.5625 -145.398438 85.851562 -149.445312 80.90625 -150.34375 C 73.71875 -151.695312 67.3125 -149.113281 61.6875 -142.59375 C 56.070312 -136.082031 51.460938 -127.429688 47.859375 -116.640625 C 44.265625 -105.847656 41.679688 -94.046875 40.109375 -81.234375 C 38.535156 -68.429688 38.085938 -56.296875 38.765625 -44.828125 C 39.441406 -33.367188 41.238281 -23.59375 44.15625 -15.5 C 47.082031 -7.414062 51.46875 -2.921875 57.3125 -2.015625 C 63.15625 -1.117188 68.660156 -4.265625 73.828125 -11.453125 C 78.992188 -18.648438 83.488281 -27.863281 87.3125 -39.09375 C 91.132812 -50.332031 94.054688 -62.804688 96.078125 -76.515625 C 98.097656 -90.234375 98.4375 -103.382812 97.09375 -115.96875 Z M 97.09375 -115.96875 "/></g></g></g><g fill="rgb(100%, 74.899292%, 0%)" fill-opacity="1"><g transform="translate(1592.291073, 459.340318)"><g><path d="M 7.421875 -221.140625 C 7.421875 -224.285156 7.53125 -227.316406 7.75 -230.234375 C 7.976562 -233.160156 8.09375 -235.75 8.09375 -238 C 8.09375 -248.789062 11.015625 -256.316406 16.859375 -260.578125 C 22.703125 -264.847656 28.992188 -266.757812 35.734375 -266.3125 C 42.472656 -265.863281 48.425781 -263.390625 53.59375 -258.890625 C 58.769531 -254.398438 60.679688 -248.5625 59.328125 -241.375 L 55.953125 -223.84375 L 72.140625 -223.84375 C 80.679688 -223.84375 86.859375 -222.378906 90.671875 -219.453125 C 94.492188 -216.535156 96.40625 -213.390625 96.40625 -210.015625 C 96.40625 -206.648438 94.382812 -203.617188 90.34375 -200.921875 C 86.300781 -198.222656 80.679688 -196.875 73.484375 -196.875 L 53.265625 -196.875 C 51.460938 -180.6875 49.882812 -162.816406 48.53125 -143.265625 C 47.1875 -123.710938 46.289062 -105.285156 45.84375 -87.984375 C 45.394531 -70.679688 45.617188 -56.296875 46.515625 -44.828125 C 47.421875 -33.367188 49.445312 -27.640625 52.59375 -27.640625 C 55.289062 -27.640625 59 -31.6875 63.71875 -39.78125 C 68.4375 -47.875 73.265625 -57.203125 78.203125 -67.765625 C 83.148438 -78.328125 87.644531 -88.660156 91.6875 -98.765625 C 95.738281 -108.878906 98.4375 -115.738281 99.78125 -119.34375 C 100.675781 -123.382812 102.695312 -126.078125 105.84375 -127.421875 C 109 -128.773438 112.035156 -129.113281 114.953125 -128.4375 C 117.878906 -127.757812 120.351562 -126.1875 122.375 -123.71875 C 124.394531 -121.25 124.726562 -117.988281 123.375 -113.9375 C 120.6875 -104.945312 117.09375 -93.257812 112.59375 -78.875 C 108.101562 -64.5 102.484375 -50.566406 95.734375 -37.078125 C 88.992188 -23.597656 80.90625 -11.910156 71.46875 -2.015625 C 62.03125 7.867188 50.789062 12.8125 37.75 12.8125 C 29.21875 12.8125 22.253906 9.4375 16.859375 2.6875 C 11.460938 -4.050781 7.414062 -12.925781 4.71875 -23.9375 C 2.019531 -34.945312 0.335938 -47.644531 -0.328125 -62.03125 C -1.003906 -76.414062 -1.117188 -91.25 -0.671875 -106.53125 C -0.222656 -121.8125 0.671875 -137.203125 2.015625 -152.703125 C 3.367188 -168.210938 4.492188 -182.484375 5.390625 -195.515625 L -10.78125 -195.515625 C -17.976562 -195.515625 -23.484375 -196.863281 -27.296875 -199.5625 C -31.117188 -202.257812 -33.140625 -205.179688 -33.359375 -208.328125 C -33.585938 -211.472656 -31.90625 -214.394531 -28.3125 -217.09375 C -24.71875 -219.789062 -18.875 -221.140625 -10.78125 -221.140625 Z M 7.421875 -221.140625 "/></g></g></g><g fill="rgb(100%, 74.899292%, 0%)" fill-opacity="1"><g transform="translate(1691.401049, 459.340318)"><g><path d="M 20.90625 -109.890625 C 20 -106.296875 18.082031 -103.710938 15.15625 -102.140625 C 12.238281 -100.566406 9.207031 -100.117188 6.0625 -100.796875 C 2.914062 -101.472656 0.445312 -103.046875 -1.34375 -105.515625 C -3.144531 -107.984375 -3.144531 -111.242188 -1.34375 -115.296875 L 2.703125 -126.75 C -1.347656 -130.800781 -3.597656 -135.519531 -4.046875 -140.90625 C -4.492188 -146.300781 -3.59375 -151.359375 -1.34375 -156.078125 C 0.894531 -160.796875 4.148438 -164.84375 8.421875 -168.21875 C 12.691406 -171.59375 17.523438 -173.28125 22.921875 -173.28125 C 32.359375 -173.28125 37.523438 -169.796875 38.421875 -162.828125 C 39.328125 -155.859375 37.984375 -148.101562 34.390625 -139.5625 C 37.085938 -138.21875 41.46875 -137.992188 47.53125 -138.890625 C 53.601562 -139.785156 59.332031 -140.34375 64.71875 -140.5625 C 70.113281 -140.789062 74.609375 -139.78125 78.203125 -137.53125 C 81.804688 -135.289062 82.707031 -130.125 80.90625 -122.03125 C 79.101562 -113.9375 77.191406 -104.269531 75.171875 -93.03125 C 73.148438 -81.800781 71.6875 -71.128906 70.78125 -61.015625 C 69.882812 -50.898438 69.882812 -42.242188 70.78125 -35.046875 C 71.6875 -27.859375 74.160156 -24.265625 78.203125 -24.265625 C 80.898438 -24.265625 84.382812 -28.195312 88.65625 -36.0625 C 92.925781 -43.9375 97.304688 -53.039062 101.796875 -63.375 C 106.296875 -73.71875 110.34375 -84.171875 113.9375 -94.734375 C 117.539062 -105.296875 119.789062 -113.269531 120.6875 -118.65625 C 121.582031 -123.15625 123.488281 -126.300781 126.40625 -128.09375 C 129.332031 -129.894531 132.367188 -130.679688 135.515625 -130.453125 C 138.660156 -130.234375 141.242188 -128.882812 143.265625 -126.40625 C 145.296875 -123.9375 146.082031 -120.457031 145.625 -115.96875 C 145.175781 -113.71875 144.050781 -108.882812 142.25 -101.46875 C 140.457031 -94.050781 137.988281 -85.734375 134.84375 -76.515625 C 131.695312 -67.304688 127.875 -57.644531 123.375 -47.53125 C 118.882812 -37.414062 113.492188 -28.085938 107.203125 -19.546875 C 100.910156 -11.003906 93.941406 -4.148438 86.296875 1.015625 C 78.660156 6.179688 70.117188 8.539062 60.671875 8.09375 C 49.890625 7.644531 42.023438 2.816406 37.078125 -6.390625 C 32.140625 -15.609375 28.992188 -26.625 27.640625 -39.4375 C 26.296875 -52.25 26.632812 -65.847656 28.65625 -80.234375 C 30.675781 -94.617188 33.484375 -107.203125 37.078125 -117.984375 C 34.828125 -117.535156 32.578125 -117.3125 30.328125 -117.3125 C 28.085938 -117.3125 25.84375 -117.3125 23.59375 -117.3125 C 22.25 -115.0625 21.351562 -112.585938 20.90625 -109.890625 Z M 20.90625 -109.890625 "/></g></g></g><path fill="rgb(98.429871%, 96.078491%, 95.289612%)" d="M 441.359375 15.824219 C 450.574219 15.824219 462.464844 16.335938 477.03125 17.359375 C 491.621094 18.382812 507.113281 20.3125 523.492188 23.148438 C 539.871094 25.960938 556.496094 29.792969 573.375 34.644531 C 590.277344 39.507812 605.386719 45.777344 618.695312 53.464844 C 632 61.132812 642.878906 70.34375 651.332031 81.101562 C 659.777344 91.84375 664.011719 104.371094 664.011719 118.703125 C 664.011719 138.183594 656.582031 153.421875 641.726562 164.414062 C 626.894531 175.421875 609.492188 180.914062 589.519531 180.914062 C 588.496094 180.914062 586.183594 180.539062 582.589844 179.769531 C 579.015625 179.011719 575.316406 177.988281 571.488281 176.699219 C 567.648438 175.421875 564.320312 173.882812 561.484375 172.09375 C 558.671875 170.3125 557.273438 168.136719 557.273438 165.558594 C 557.273438 160.4375 560.207031 156.226562 566.09375 152.917969 C 572 149.589844 578.394531 146.765625 585.304688 144.453125 C 592.207031 142.148438 598.59375 139.589844 604.480469 136.777344 C 610.386719 133.96875 613.339844 130.261719 613.339844 125.632812 C 613.339844 116.921875 607.058594 109.492188 594.519531 103.347656 C 581.96875 97.207031 566.859375 92.226562 549.203125 88.386719 C 531.5625 84.558594 513.019531 81.753906 493.566406 79.960938 C 474.117188 78.148438 457.738281 77.246094 444.429688 77.246094 C 431.617188 77.246094 414.714844 78.148438 393.71875 79.960938 C 372.742188 81.753906 350.09375 84.558594 325.761719 88.386719 C 301.449219 92.226562 276.753906 97.34375 251.664062 103.742188 C 226.59375 110.148438 203.828125 117.835938 183.351562 126.816406 C 162.878906 135.773438 145.988281 146.136719 132.679688 157.917969 C 119.371094 169.679688 112.207031 182.980469 111.183594 197.804688 C 110.160156 206.523438 115.789062 215.109375 128.074219 223.554688 C 140.359375 231.980469 156.472656 240.167969 176.421875 248.121094 C 196.394531 256.054688 219.042969 263.734375 244.378906 271.152344 C 269.734375 278.554688 295.210938 285.722656 320.800781 292.652344 C 346.394531 299.5625 370.695312 306.460938 393.71875 313.363281 C 416.761719 320.269531 435.964844 326.789062 451.320312 332.929688 C 466.175781 339.070312 482.171875 346.632812 499.316406 355.609375 C 516.453125 364.566406 532.4375 374.800781 547.273438 386.320312 C 562.125 397.816406 574.410156 410.730469 584.125 425.0625 C 593.859375 439.394531 598.730469 455.261719 598.730469 472.664062 C 598.730469 489.042969 594.636719 503 586.449219 514.515625 C 578.257812 526.03125 567.371094 535.511719 553.808594 542.941406 C 540.265625 550.363281 524.789062 555.738281 507.386719 559.046875 C 489.984375 562.371094 472.070312 564.046875 453.644531 564.046875 C 412.164062 564.046875 371.847656 560.078125 332.691406 552.15625 C 293.527344 544.222656 255.523438 532.832031 218.667969 517.980469 C 205.363281 512.863281 191.277344 506.347656 176.421875 498.414062 C 161.589844 490.457031 148.035156 481.246094 135.75 470.773438 C 123.46875 460.28125 113.230469 448.753906 105.039062 436.203125 C 96.851562 423.664062 92.757812 409.707031 92.757812 394.351562 C 92.757812 386.691406 94.421875 379.023438 97.757812 371.355469 C 101.082031 363.667969 105.945312 356.75 112.324219 350.609375 C 118.722656 344.464844 126.539062 339.484375 135.75 335.644531 C 144.964844 331.789062 155.714844 329.859375 167.996094 329.859375 C 170.566406 329.859375 173.636719 330.125 177.210938 330.644531 C 180.804688 331.148438 183.875 332.171875 186.421875 333.71875 C 188.992188 335.242188 190.28125 337.023438 190.28125 339.070312 C 190.28125 341.117188 187.722656 343.679688 182.605469 346.75 C 173.882812 351.867188 166.078125 356.226562 159.179688 359.820312 C 152.269531 363.394531 146.382812 366.976562 141.5 370.570312 C 136.636719 374.144531 133.054688 377.855469 130.75 381.710938 C 128.46875 385.550781 127.324219 390.019531 127.324219 395.136719 C 127.324219 402.804688 129.746094 410.21875 134.609375 417.382812 C 139.460938 424.550781 145.476562 431.203125 152.640625 437.34375 C 159.808594 443.488281 167.101562 448.871094 174.53125 453.488281 C 181.953125 458.085938 188.480469 461.667969 194.101562 464.238281 C 230.953125 483.164062 270.613281 497.625 313.085938 507.625 C 355.578125 517.597656 398.335938 522.585938 441.359375 522.585938 C 449.019531 522.585938 459.128906 522.320312 471.675781 521.800781 C 484.21875 521.296875 496.640625 519.515625 508.921875 516.445312 C 521.207031 513.375 531.691406 508.765625 540.382812 502.625 C 549.09375 496.484375 553.453125 487.527344 553.453125 475.734375 C 553.453125 460.378906 546.148438 446.441406 531.5625 433.921875 C 516.964844 421.378906 499.050781 409.855469 477.820312 399.351562 C 456.578125 388.859375 433.929688 379.773438 409.863281 372.105469 C 385.785156 364.417969 364.542969 357.765625 346.117188 352.144531 C 292.886719 336.789062 247.460938 323.234375 209.851562 311.472656 C 172.230469 299.6875 141.773438 288.035156 118.464844 276.507812 C 95.179688 264.992188 78.285156 253.082031 67.792969 240.796875 C 57.320312 228.515625 52.597656 213.9375 53.621094 197.054688 C 55.136719 172.988281 63.199219 151.738281 77.792969 133.3125 C 92.382812 114.886719 111.066406 99.019531 133.820312 85.710938 C 156.597656 72.402344 182.0625 61.277344 210.203125 52.320312 C 238.367188 43.34375 266.515625 36.179688 294.660156 30.824219 C 322.820312 25.449219 349.828125 21.601562 375.6875 19.289062 C 401.535156 16.984375 423.425781 15.824219 441.359375 15.824219 Z M 441.359375 15.824219 " fill-opacity="1" fill-rule="nonzero"/><g clip-path="url(#id3)"><path fill="rgb(31.369019%, 54.899597%, 64.309692%)" d="M 455.753906 38.871094 C 464.96875 38.871094 476.855469 39.382812 491.425781 40.410156 C 506.011719 41.433594 521.503906 43.359375 537.882812 46.195312 C 554.261719 49.011719 570.886719 52.839844 587.769531 57.691406 C 604.671875 62.554688 619.78125 68.824219 633.085938 76.511719 C 646.394531 84.179688 657.273438 93.394531 665.726562 104.152344 C 674.171875 114.890625 678.40625 127.421875 678.40625 141.753906 C 678.40625 161.234375 670.972656 176.46875 656.121094 187.464844 C 641.285156 198.46875 623.882812 203.960938 603.914062 203.960938 C 602.886719 203.960938 600.574219 203.585938 596.984375 202.820312 C 593.410156 202.0625 589.707031 201.039062 585.878906 199.75 C 582.039062 198.46875 578.714844 196.933594 575.878906 195.140625 C 573.0625 193.359375 571.667969 191.183594 571.667969 188.605469 C 571.667969 183.488281 574.597656 179.273438 580.484375 175.96875 C 586.390625 172.640625 592.789062 169.816406 599.699219 167.503906 C 606.597656 165.199219 612.988281 162.640625 618.875 159.824219 C 624.78125 157.019531 627.734375 153.308594 627.734375 148.683594 C 627.734375 139.972656 621.453125 132.539062 608.914062 126.398438 C 596.363281 120.253906 581.253906 115.273438 563.59375 111.4375 C 545.957031 107.605469 527.410156 104.800781 507.960938 103.011719 C 488.511719 101.199219 472.132812 100.292969 458.824219 100.292969 C 446.007812 100.292969 429.109375 101.199219 408.113281 103.011719 C 387.136719 104.800781 364.488281 107.605469 340.15625 111.4375 C 315.84375 115.273438 291.148438 120.394531 266.058594 126.792969 C 240.988281 133.199219 218.21875 140.886719 197.746094 149.863281 C 177.273438 158.820312 160.382812 169.1875 147.074219 180.96875 C 133.765625 192.730469 126.601562 206.027344 125.574219 220.851562 C 124.550781 229.574219 130.183594 238.15625 142.46875 246.601562 C 154.75 255.027344 170.863281 263.21875 190.816406 271.171875 C 210.789062 279.105469 233.4375 286.78125 258.773438 294.203125 C 284.128906 301.605469 309.601562 308.769531 335.195312 315.699219 C 360.789062 322.609375 385.089844 329.511719 408.113281 336.410156 C 431.15625 343.320312 450.359375 349.835938 465.714844 355.980469 C 480.566406 362.121094 496.5625 369.679688 513.710938 378.65625 C 530.847656 387.613281 546.832031 397.851562 561.664062 409.367188 C 576.519531 420.863281 588.804688 433.777344 598.519531 448.109375 C 608.253906 462.441406 613.125 478.308594 613.125 495.710938 C 613.125 512.089844 609.03125 526.046875 600.839844 537.566406 C 592.652344 549.082031 581.765625 558.558594 568.203125 565.992188 C 554.65625 573.414062 539.183594 578.789062 521.78125 582.09375 C 504.378906 585.421875 486.464844 587.09375 468.039062 587.09375 C 426.558594 587.09375 386.242188 583.128906 347.085938 575.203125 C 307.917969 567.269531 269.914062 555.882812 233.0625 541.027344 C 219.753906 535.910156 205.667969 529.394531 190.816406 521.460938 C 175.984375 513.507812 162.429688 504.292969 150.144531 493.820312 C 137.859375 483.328125 127.625 471.800781 119.433594 459.253906 C 111.246094 446.710938 107.148438 432.753906 107.148438 417.398438 C 107.148438 409.742188 108.8125 402.074219 112.148438 394.40625 C 115.476562 386.71875 120.339844 379.800781 126.71875 373.65625 C 133.117188 367.515625 140.929688 362.535156 150.144531 358.695312 C 159.359375 354.835938 170.105469 352.90625 182.390625 352.90625 C 184.960938 352.90625 188.03125 353.171875 191.605469 353.695312 C 195.195312 354.195312 198.265625 355.222656 200.816406 356.765625 C 203.386719 358.292969 204.675781 360.074219 204.675781 362.121094 C 204.675781 364.167969 202.117188 366.726562 196.996094 369.796875 C 188.277344 374.917969 180.472656 379.277344 173.570312 382.871094 C 166.660156 386.441406 160.773438 390.027344 155.894531 393.617188 C 151.03125 397.191406 147.449219 400.902344 145.144531 404.761719 C 142.859375 408.601562 141.71875 413.070312 141.71875 418.1875 C 141.71875 425.855469 144.140625 433.265625 149.003906 440.433594 C 153.855469 447.597656 159.871094 454.253906 167.035156 460.394531 C 174.199219 466.535156 181.496094 471.921875 188.925781 476.539062 C 196.347656 481.132812 202.875 484.71875 208.496094 487.285156 C 245.347656 506.214844 285.003906 520.671875 327.476562 530.675781 C 369.972656 540.644531 412.730469 545.636719 455.753906 545.636719 C 463.410156 545.636719 473.519531 545.371094 486.070312 544.847656 C 498.609375 544.347656 511.03125 542.566406 523.316406 539.492188 C 535.601562 536.421875 546.085938 531.816406 554.777344 525.675781 C 563.488281 519.53125 567.847656 510.574219 567.847656 498.78125 C 567.847656 483.425781 560.542969 469.488281 545.957031 456.96875 C 531.359375 444.429688 513.445312 432.902344 492.210938 422.398438 C 470.972656 411.90625 448.320312 402.820312 424.253906 395.152344 C 400.179688 387.464844 378.9375 380.8125 360.511719 375.191406 C 307.28125 359.835938 261.855469 346.28125 224.242188 334.519531 C 186.625 322.738281 156.167969 311.085938 132.859375 299.558594 C 109.570312 288.042969 92.679688 276.132812 82.1875 263.847656 C 71.714844 251.5625 66.988281 236.984375 68.011719 220.105469 C 69.53125 196.039062 77.589844 174.785156 92.1875 156.359375 C 106.777344 137.933594 125.457031 122.066406 148.214844 108.757812 C 170.992188 95.449219 196.457031 84.328125 224.597656 75.371094 C 252.757812 66.394531 280.910156 59.226562 309.050781 53.875 C 337.214844 48.5 364.222656 44.652344 390.082031 42.335938 C 415.929688 40.035156 437.820312 38.871094 455.753906 38.871094 Z M 455.753906 38.871094 " fill-opacity="1" fill-rule="nonzero"/></g><g clip-path="url(#id4)"><path fill="rgb(0%, 9.01947%, 12.159729%)" d="M 426.960938 38.871094 C 436.175781 38.871094 448.066406 39.382812 462.632812 40.410156 C 477.222656 41.433594 492.714844 43.359375 509.09375 46.195312 C 525.472656 49.011719 542.097656 52.839844 558.976562 57.691406 C 575.878906 62.554688 590.988281 68.824219 604.296875 76.511719 C 617.605469 84.179688 628.480469 93.394531 636.933594 104.152344 C 645.378906 114.890625 649.613281 127.421875 649.613281 141.753906 C 649.613281 161.234375 642.183594 176.46875 627.328125 187.464844 C 612.496094 198.46875 595.09375 203.960938 575.121094 203.960938 C 574.097656 203.960938 571.785156 203.585938 568.191406 202.820312 C 564.617188 202.0625 560.917969 201.039062 557.089844 199.75 C 553.25 198.46875 549.921875 196.933594 547.085938 195.140625 C 544.273438 193.359375 542.875 191.183594 542.875 188.605469 C 542.875 183.488281 545.808594 179.273438 551.695312 175.96875 C 557.601562 172.640625 563.996094 169.816406 570.90625 167.503906 C 577.808594 165.199219 584.195312 162.640625 590.082031 159.824219 C 595.988281 157.019531 598.941406 153.308594 598.941406 148.683594 C 598.941406 139.972656 592.660156 132.539062 580.121094 126.398438 C 567.570312 120.253906 552.460938 115.273438 534.804688 111.4375 C 517.164062 107.605469 498.621094 104.800781 479.171875 103.011719 C 459.71875 101.199219 443.339844 100.292969 430.03125 100.292969 C 417.21875 100.292969 400.316406 101.199219 379.320312 103.011719 C 358.34375 104.800781 335.695312 107.605469 311.363281 111.4375 C 287.050781 115.273438 262.355469 120.394531 237.265625 126.792969 C 212.195312 133.199219 189.429688 140.886719 168.953125 149.863281 C 148.480469 158.820312 131.589844 169.1875 118.28125 180.96875 C 104.972656 192.730469 97.808594 206.027344 96.785156 220.851562 C 95.761719 229.574219 101.390625 238.15625 113.675781 246.601562 C 125.960938 255.027344 142.074219 263.21875 162.023438 271.171875 C 181.996094 279.105469 204.644531 286.78125 229.980469 294.203125 C 255.335938 301.605469 280.8125 308.769531 306.402344 315.699219 C 331.996094 322.609375 356.296875 329.511719 379.320312 336.410156 C 402.363281 343.320312 421.566406 349.835938 436.921875 355.980469 C 451.777344 362.121094 467.773438 369.679688 484.917969 378.65625 C 502.054688 387.613281 518.039062 397.851562 532.875 409.367188 C 547.726562 420.863281 560.011719 433.777344 569.726562 448.109375 C 579.460938 462.441406 584.332031 478.308594 584.332031 495.710938 C 584.332031 512.089844 580.238281 526.046875 572.050781 537.566406 C 563.859375 549.082031 552.972656 558.558594 539.410156 565.992188 C 525.867188 573.414062 510.390625 578.789062 492.988281 582.09375 C 475.585938 585.421875 457.671875 587.09375 439.246094 587.09375 C 397.765625 587.09375 357.449219 583.128906 318.292969 575.203125 C 279.128906 567.269531 241.125 555.882812 204.269531 541.027344 C 190.964844 535.910156 176.878906 529.394531 162.023438 521.460938 C 147.191406 513.507812 133.636719 504.292969 121.351562 493.820312 C 109.070312 483.328125 98.832031 471.800781 90.640625 459.253906 C 82.453125 446.710938 78.359375 432.753906 78.359375 417.398438 C 78.359375 409.742188 80.023438 402.074219 83.359375 394.40625 C 86.683594 386.71875 91.546875 379.800781 97.925781 373.65625 C 104.324219 367.515625 112.140625 362.535156 121.351562 358.695312 C 130.566406 354.835938 141.316406 352.90625 153.597656 352.90625 C 156.167969 352.90625 159.238281 353.171875 162.8125 353.695312 C 166.40625 354.195312 169.476562 355.222656 172.023438 356.765625 C 174.59375 358.292969 175.882812 360.074219 175.882812 362.121094 C 175.882812 364.167969 173.324219 366.726562 168.207031 369.796875 C 159.484375 374.917969 151.679688 379.277344 144.78125 382.871094 C 137.871094 386.441406 131.984375 390.027344 127.101562 393.617188 C 122.238281 397.191406 118.65625 400.902344 116.351562 404.761719 C 114.070312 408.601562 112.925781 413.070312 112.925781 418.1875 C 112.925781 425.855469 115.347656 433.265625 120.210938 440.433594 C 125.0625 447.597656 131.078125 454.253906 138.242188 460.394531 C 145.410156 466.535156 152.703125 471.921875 160.132812 476.539062 C 167.554688 481.132812 174.082031 484.71875 179.703125 487.285156 C 216.554688 506.214844 256.214844 520.671875 298.6875 530.675781 C 341.179688 540.644531 383.9375 545.636719 426.960938 545.636719 C 434.621094 545.636719 444.730469 545.371094 457.277344 544.847656 C 469.820312 544.347656 482.242188 542.566406 494.523438 539.492188 C 506.808594 536.421875 517.292969 531.816406 525.984375 525.675781 C 534.695312 519.53125 539.054688 510.574219 539.054688 498.78125 C 539.054688 483.425781 531.75 469.488281 517.164062 456.96875 C 502.566406 444.429688 484.652344 432.902344 463.421875 422.398438 C 442.179688 411.90625 419.53125 402.820312 395.464844 395.152344 C 371.386719 387.464844 350.144531 380.8125 331.71875 375.191406 C 278.488281 359.835938 233.0625 346.28125 195.453125 334.519531 C 157.832031 322.738281 127.375 311.085938 104.066406 299.558594 C 80.78125 288.042969 63.890625 276.132812 53.394531 263.847656 C 42.921875 251.5625 38.199219 236.984375 39.222656 220.105469 C 40.738281 196.039062 48.800781 174.785156 63.398438 156.359375 C 77.984375 137.933594 96.667969 122.066406 119.421875 108.757812 C 142.199219 95.449219 167.664062 84.328125 195.804688 75.371094 C 223.96875 66.394531 252.117188 59.226562 280.261719 53.875 C 308.421875 48.5 335.429688 44.652344 361.289062 42.335938 C 387.136719 40.035156 409.027344 38.871094 426.960938 38.871094 Z M 426.960938 38.871094 " fill-opacity="1" fill-rule="nonzero"/></g><g clip-path="url(#id5)"><path fill="rgb(100%, 74.899292%, 0%)" d="M 441.359375 38.871094 C 450.570312 38.871094 462.460938 39.382812 477.03125 40.410156 C 491.617188 41.433594 507.109375 43.359375 523.488281 46.195312 C 539.867188 49.011719 556.492188 52.839844 573.375 57.691406 C 590.273438 62.554688 605.382812 68.824219 618.691406 76.511719 C 632 84.179688 642.875 93.394531 651.332031 104.152344 C 659.777344 114.890625 664.007812 127.421875 664.007812 141.753906 C 664.007812 161.234375 656.578125 176.46875 641.722656 187.464844 C 626.890625 198.46875 609.488281 203.960938 589.515625 203.960938 C 588.492188 203.960938 586.179688 203.585938 582.585938 202.820312 C 579.015625 202.0625 575.3125 201.039062 571.484375 199.75 C 567.644531 198.46875 564.316406 196.933594 561.484375 195.140625 C 558.667969 193.359375 557.269531 191.183594 557.269531 188.605469 C 557.269531 183.488281 560.203125 179.273438 566.089844 175.96875 C 571.996094 172.640625 578.394531 169.816406 585.304688 167.503906 C 592.203125 165.199219 598.59375 162.640625 604.476562 159.824219 C 610.382812 157.019531 613.335938 153.308594 613.335938 148.683594 C 613.335938 139.972656 607.058594 132.539062 594.515625 126.398438 C 581.96875 120.253906 566.859375 115.273438 549.199219 111.4375 C 531.558594 107.605469 513.015625 104.800781 493.566406 103.011719 C 474.117188 101.199219 457.738281 100.292969 444.429688 100.292969 C 431.613281 100.292969 414.710938 101.199219 393.71875 103.011719 C 372.742188 104.800781 350.09375 107.605469 325.761719 111.4375 C 301.449219 115.273438 276.75 120.394531 251.660156 126.792969 C 226.589844 133.199219 203.824219 140.886719 183.351562 149.863281 C 162.875 158.820312 145.984375 169.1875 132.675781 180.96875 C 119.371094 192.730469 112.203125 206.027344 111.179688 220.851562 C 110.15625 229.574219 115.785156 238.15625 128.070312 246.601562 C 140.355469 255.027344 156.46875 263.21875 176.421875 271.171875 C 196.390625 279.105469 219.042969 286.78125 244.378906 294.203125 C 269.734375 301.605469 295.207031 308.769531 320.800781 315.699219 C 346.390625 322.609375 370.695312 329.511719 393.71875 336.410156 C 416.761719 343.320312 435.964844 349.835938 451.320312 355.980469 C 466.171875 362.121094 482.167969 369.679688 499.3125 378.65625 C 516.449219 387.613281 532.4375 397.851562 547.269531 409.367188 C 562.125 420.863281 574.40625 433.777344 584.121094 448.109375 C 593.855469 462.441406 598.730469 478.308594 598.730469 495.710938 C 598.730469 512.089844 594.636719 526.046875 586.445312 537.566406 C 578.257812 549.082031 567.371094 558.558594 553.804688 565.992188 C 540.261719 573.414062 524.789062 578.789062 507.386719 582.09375 C 489.984375 585.421875 472.070312 587.09375 453.640625 587.09375 C 412.164062 587.09375 371.847656 583.128906 332.691406 575.203125 C 293.523438 567.269531 255.519531 555.882812 218.667969 541.027344 C 205.359375 535.910156 191.273438 529.394531 176.421875 521.460938 C 161.585938 513.507812 148.03125 504.292969 135.75 493.820312 C 123.464844 483.328125 113.226562 471.800781 105.039062 459.253906 C 96.847656 446.710938 92.753906 432.753906 92.753906 417.398438 C 92.753906 409.742188 94.417969 402.074219 97.753906 394.40625 C 101.082031 386.71875 105.945312 379.800781 112.320312 373.65625 C 118.71875 367.515625 126.535156 362.535156 135.75 358.695312 C 144.960938 354.835938 155.710938 352.90625 167.996094 352.90625 C 170.5625 352.90625 173.636719 353.171875 177.207031 353.695312 C 180.800781 354.195312 183.871094 355.222656 186.421875 356.765625 C 188.988281 358.292969 190.28125 360.074219 190.28125 362.121094 C 190.28125 364.167969 187.71875 366.726562 182.601562 369.796875 C 173.882812 374.917969 166.074219 379.277344 159.175781 382.871094 C 152.265625 386.441406 146.378906 390.027344 141.496094 393.617188 C 136.632812 397.191406 133.050781 400.902344 130.75 404.761719 C 128.464844 408.601562 127.324219 413.070312 127.324219 418.1875 C 127.324219 425.855469 129.746094 433.265625 134.605469 440.433594 C 139.460938 447.597656 145.472656 454.253906 152.640625 460.394531 C 159.804688 466.535156 167.097656 471.921875 174.53125 476.539062 C 181.953125 481.132812 188.476562 484.71875 194.097656 487.285156 C 230.953125 506.214844 270.609375 520.671875 313.082031 530.675781 C 355.574219 540.644531 398.332031 545.636719 441.359375 545.636719 C 449.015625 545.636719 459.125 545.371094 471.675781 544.847656 C 484.214844 544.347656 496.636719 542.566406 508.921875 539.492188 C 521.207031 536.421875 531.6875 531.816406 540.378906 525.675781 C 549.089844 519.53125 553.453125 510.574219 553.453125 498.78125 C 553.453125 483.425781 546.148438 469.488281 531.558594 456.96875 C 516.960938 444.429688 499.046875 432.902344 477.816406 422.398438 C 456.574219 411.90625 433.925781 402.820312 409.859375 395.152344 C 385.785156 387.464844 364.542969 380.8125 346.117188 375.191406 C 292.882812 359.835938 247.457031 346.28125 209.847656 334.519531 C 172.226562 322.738281 141.773438 311.085938 118.464844 299.558594 C 95.175781 288.042969 78.285156 276.132812 67.792969 263.847656 C 57.320312 251.5625 52.59375 236.984375 53.617188 220.105469 C 55.132812 196.039062 63.195312 174.785156 77.792969 156.359375 C 92.378906 137.933594 111.0625 122.066406 133.820312 108.757812 C 156.597656 95.449219 182.0625 84.328125 210.203125 75.371094 C 238.363281 66.394531 266.515625 59.226562 294.65625 53.875 C 322.816406 48.5 349.828125 44.652344 375.683594 42.335938 C 401.53125 40.035156 423.421875 38.871094 441.359375 38.871094 Z M 441.359375 38.871094 " fill-opacity="1" fill-rule="nonzero"/></g></svg>